<svg width="194" height="194" viewBox="0 0 194 194" fill="none" xmlns="http://www.w3.org/2000/svg">
<path d="M87.3 155.2H106.7V135.8H87.3V155.2ZM97 0C84.2618 0 71.6483 2.50898 59.8797 7.38369C48.1111 12.2584 37.4179 19.4034 28.4106 28.4106C10.2196 46.6017 0 71.274 0 97C0 122.726 10.2196 147.398 28.4106 165.589C37.4179 174.597 48.1111 181.742 59.8797 186.616C71.6483 191.491 84.2618 194 97 194C122.726 194 147.398 183.78 165.589 165.589C183.78 147.398 194 122.726 194 97C194 84.2618 191.491 71.6483 186.616 59.8797C181.742 48.1111 174.597 37.4179 165.589 28.4106C156.582 19.4034 145.889 12.2584 134.12 7.38369C122.352 2.50898 109.738 0 97 0ZM97 174.6C54.223 174.6 19.4 139.777 19.4 97C19.4 54.223 54.223 19.4 97 19.4C139.777 19.4 174.6 54.223 174.6 97C174.6 139.777 139.777 174.6 97 174.6ZM97 38.8C86.7096 38.8 76.8407 42.8878 69.5643 50.1643C62.2878 57.4407 58.2 67.3096 58.2 77.6H77.6C77.6 72.4548 79.6439 67.5203 83.2821 63.8821C86.9203 60.2439 91.8548 58.2 97 58.2C102.145 58.2 107.08 60.2439 110.718 63.8821C114.356 67.5203 116.4 72.4548 116.4 77.6C116.4 97 87.3 94.575 87.3 126.1H106.7C106.7 104.275 135.8 101.85 135.8 77.6C135.8 67.3096 131.712 57.4407 124.436 50.1643C117.159 42.8878 107.29 38.8 97 38.8Z" fill="#F52C2C"/>
</svg>
